<?xml version="1.0" encoding="utf-8"?>
<!-- Generator: Adobe Illustrator 25.4.0, SVG Export Plug-In . SVG Version: 6.00 Build 0)  -->
<svg version="1.1" id="Layer_1" xmlns="http://www.w3.org/2000/svg" xmlns:xlink="http://www.w3.org/1999/xlink" x="0px" y="0px"
	 viewBox="0 0 604.47 455.98" style="enable-background:new 0 0 604.47 455.98;" xml:space="preserve">
<style type="text/css">
	.st0{fill:#E5C9A5;}
	.st1{fill:#352C20;}
</style>
<g>
	<g>
		<path class="st0" d="M146.44,186.14c0,0,137.14,30.67,178.26,174.89l114.55-222.92C439.24,138.11,358.81,205.79,146.44,186.14z"/>
		<g>
			<path class="st0" d="M330.18,360.74c0,0-0.83-2.29-2.35-6.45c-1.38-4.21-4.15-10.05-7.26-17.39
				c-6.61-14.52-16.72-34.44-31.37-54.59c-14.55-20.17-33.44-40.53-54.32-56.9c-10.42-8.22-21.27-15.45-31.89-21.71
				c-10.74-6.06-21.12-11.38-30.95-15.27c-19.49-8.09-35.67-12.48-48.45-15.48c-12.82-2.92-22.38-4.23-29.25-4.8
				c-6.87-0.55-11.07-0.36-13.28,0.23c-2.25,0.6-2.24,1.62-1.78,2.89c1.25,2.58,11.66,3.28,25.18,5.03
				c13.48,1.66,29.99,4.41,42.63,8.25c6.3,1.91,20.12,6.78,37.29,15.47c17.2,8.57,37.45,21.46,56.44,37.74
				c19.16,16.09,36.43,35.99,49.79,55.41c3.32,4.87,6.61,9.59,9.33,14.39c2.76,4.77,5.7,9.21,7.89,13.72
				c2.31,4.47,4.48,8.68,6.5,12.6c1.78,4.03,3.44,7.75,4.92,11.11c3.09,6.69,5.24,12.92,7.33,18.46c1.03,2.78,2.01,5.39,2.92,7.85
				c0.8,2.5,1.54,4.85,2.24,7.06c1.42,4.42,2.65,8.26,3.72,11.61c1.05,3.36,1.75,6.26,2.47,8.7c2.8,9.8,4.09,12.69,5.27,13.5
				c1.18,0.81,0.69-3.55-1.22-12.44c-0.96-4.45-2.17-10.04-4.27-16.55C335.72,376.63,333.51,369.04,330.18,360.74z"/>
		</g>
		<g>
			<path class="st0" d="M476.2,66.89c0,0-92.15,168.6-137.77,264.83c-45.62,96.23-54.69,114.63-48.01,112.67
				c6.69-1.96,25.04-51.18,39.05-82.17c14.01-30.98,104.79-208.29,139.56-272.9c34.77-64.61,40.58-76.02,40.14-79.2
				C508.75,6.94,496.86,28.05,476.2,66.89z"/>
		</g>
		<g>
			<path class="st0" d="M538.01,71.1c0,0-0.71,0.68-2.08,1.96c-1.38,1.28-3.33,3.25-6.14,5.45c-2.76,2.26-6.14,5.04-10.08,8.26
				c-1.97,1.62-4.07,3.35-6.3,5.19c-1.12,0.92-2.27,1.86-3.45,2.83c-1.25,0.89-2.52,1.8-3.83,2.73
				c-20.44,15.6-50.93,34.76-87.92,50.73c-36.98,15.97-80.62,27.62-123.89,33.76c-10.85,1.22-21.61,2.83-32.29,3.47
				c-5.34,0.37-10.62,0.96-15.87,1.16c-5.25,0.23-10.45,0.45-15.58,0.67c-20.54,0.57-40.12,0.42-57.89-0.52
				c-35.58-1.67-63.93-5.61-86.23-9.48c-22.31-3.89-38.65-7.65-50.42-10.37c-11.76-2.78-18.98-4.54-23.03-5.07
				c-4.02-0.54-5.08,0.05-3.71,1.91c2.51,3.64,21.29,9.68,45.25,14.4c23.95,4.89,53.04,8.2,75.88,10.33
				c11.39,1.21,36.73,3.88,69.85,4.64c33.1,0.86,74.07-1.4,115.72-8.85c41.69-7.31,83.58-21.21,118.88-38.16
				c17.67-8.45,33.7-17.66,47.6-26.71c7.15-4.21,13.34-9.03,19.26-13.25c5.88-4.28,11.44-8.03,15.99-12.05
				c9.29-7.78,17.95-14.38,24.79-21.35c3.53-3.36,6.86-6.52,9.99-9.5c1.57-1.49,3.09-2.93,4.55-4.33c1.42-1.46,2.71-2.95,4.01-4.35
				c10.23-11.33,18.08-19.45,22.95-26.31C594.26,15,596.99,10.73,597.29,8.84c0.3-1.88-4.62,3.29-14.07,14.57
				c-2.35,2.83-5,6.03-7.94,9.58c-3.14,3.37-6.6,7.07-10.36,11.09c-3.79,3.99-7.66,8.52-12.18,13
				C548.13,61.47,543.22,66.15,538.01,71.1z"/>
		</g>
	</g>
	<g>
		<g>
			<g>
				<path class="st1" d="M325.21,163.38c3.73-2.11,7.58-4.32,11.43-6.57c3.65-2.13,7.38-4.33,11.38-6.73
					c0.75-0.25,1.48-0.54,2.15-0.86c0.64-0.3,1.33-0.64,2.06-1.01c0.38-0.07,0.71-0.37,0.71-0.96v-0.32l-0.7-0.47h-0.46
					c-0.32,0-0.56,0.06-0.73,0.18c0,0-0.04,0.01-0.13,0.01l-0.24,0.05c-0.61,0.27-1.25,0.6-1.91,0.98
					c-0.67,0.38-1.26,0.69-1.86,0.95l-18.86,10.85c-23.14,13.52-45.36,27.94-66.04,42.85c-10.3,7.5-20.34,15.15-29.87,22.76
					c-9.59,7.65-18.97,15.7-27.89,23.92c-5.69,5.43-11.31,11.01-16.73,16.57c-5.42,5.58-10.67,11.35-15.59,17.16
					c-3.07,3.58-6.05,7.17-8.87,10.67c-2.19,2.72-4.38,5.49-6.55,8.26c0.39-0.72,0.8-1.47,1.25-2.26
					c3.43-6.09,6.85-12.15,10.28-18.17c3.43-6.03,6.86-12.08,10.29-18.17c5.57-9.73,11.1-19.46,16.43-28.93
					c5.43-9.64,10.9-19.35,16.43-29.12c3.6-6.44,7.2-12.97,10.71-19.41c3.52-6.47,7.09-13,10.71-19.6c1.52-2.78,2.96-5.61,4.3-8.4
					c1.32-2.77,2.48-5.66,3.44-8.57c0.41-0.71,0.62-1.46,0.62-2.25v-2.19c0-0.9-0.51-1.54-1.43-1.81c-0.82-0.23-1.75-0.07-2.92,0.55
					c-0.8,0.53-1.6,1.2-2.39,1.99c-0.96,1.02-1.95,2.06-2.99,3.13c-1.05,1.08-2.05,2.13-3.04,3.18c-2.87,3.57-5.57,7.13-8.02,10.59
					c-2.52,3.55-5.02,7.17-7.43,10.76c-4.19,5.97-8.14,12-11.73,17.92c-3.61,5.95-6.89,12.11-9.75,18.33
					c-1.17,2.6-2.28,5.2-3.3,7.73c-1.05,2.61-1.88,5.23-2.43,7.72c-0.22,0.58-0.32,1.39-0.32,2.49c0,0.97,0.65,1.55,1.74,1.55
					l0.13-0.01c0.84-0.18,1.33-0.74,1.33-1.54v-0.07c0.37-0.89,0.61-1.81,0.71-2.72c0.09-0.83,0.31-1.67,0.7-2.57
					c0.94-3.38,2.18-6.78,3.68-10.09c1.5-3.31,3.13-6.66,4.84-9.96c3.59-6.92,7.62-13.82,11.97-20.5
					c4.36-6.69,9.06-13.47,13.98-20.15c1.53-2.16,3.11-4.3,4.7-6.35c1.59-2.06,3.44-4.12,5.49-6.1c0.56-0.5,1.12-0.97,1.69-1.4
					c0.55-0.43,1.02-0.77,1.39-1.02l0.21-0.14c-0.18,1.32-0.51,2.61-0.96,3.81c-0.48,1.28-1.01,2.55-1.57,3.79
					c-1.53,3.81-3.21,7.61-4.98,11.29c-1.8,3.73-3.77,7.46-5.84,11.1c-4.19,7.61-8.33,15.16-12.43,22.65
					c-4.09,7.47-8.36,15.08-12.71,22.64c-5.76,10.39-11.72,21.05-17.71,31.68c-6.33,11.21-12.21,21.57-17.99,31.68
					c-2.06,3.49-4.08,7.01-6.01,10.48c-1.89,3.39-3.9,6.91-5.99,10.45l-0.06,0.13c-0.36,1.2-0.71,2.03-1.05,2.48l-0.12,0.16v0.2
					c0,1.03,0.61,1.39,0.93,1.5c0.27,0.12,0.53,0.18,0.78,0.18c0.35,0,0.86-0.12,1.31-0.66c0.16-0.12,0.52-0.43,1.46-1.38
					c1.54-1.79,2.99-3.6,4.31-5.36c1.31-1.75,2.75-3.53,4.28-5.32c5.87-7.56,12.11-15.07,18.54-22.33
					c6.42-7.24,13.33-14.5,20.52-21.55l1.71-1.52c0.45-0.4,0.9-0.84,1.36-1.32c0.59,1.18,1.37,2.48,2.31,3.86l18.87,29.71
					c1.91,2.67,3.73,5.42,5.41,8.15l5.14,8.38l0.09,0.11c0.32,0.31,0.65,0.8,0.98,1.46c0.05,0.36,0.3,1,1.44,1l0.19-0.03
					c0.62-0.21,0.98-0.69,0.98-1.32v-0.14l-0.06-0.13c-0.21-0.41-0.51-0.89-0.88-1.37c-2.09-3.54-4.26-7.07-6.44-10.49
					c-2.19-3.43-4.43-6.92-6.72-10.48c-2.29-3.43-4.57-6.82-6.86-10.19c-2.27-3.34-4.47-6.82-6.54-10.32
					c-0.96-1.79-1.92-3.49-2.87-5.07c-0.94-1.56-1.89-3.24-2.87-5.08c0.01-0.01,0.04-0.05,0.2-0.17c1.88-1.75,3.75-3.44,5.56-5.03
					c1.83-1.61,3.71-3.31,5.57-5.04c9.82-8.68,20.28-17.18,31.1-25.28c10.81-8.08,22.15-16.15,33.68-23.96
					c6.66-4.43,13.52-8.85,20.41-13.12C311.18,172,318.18,167.68,325.21,163.38z"/>
				<path class="st1" d="M488.48,146.47h-0.47c-0.31,0-0.56,0.06-0.73,0.18c0,0-0.04,0.01-0.13,0.01l-0.24,0.05
					c-0.61,0.27-1.26,0.6-1.91,0.98c-0.67,0.38-1.27,0.69-1.86,0.95l-18.86,10.85c-23.15,13.52-45.36,27.94-66.04,42.85
					c-10.29,7.5-20.35,15.16-29.87,22.76c-9.59,7.65-18.97,15.7-27.89,23.92c-5.69,5.43-11.32,11.01-16.73,16.57
					c-5.42,5.58-10.67,11.35-15.59,17.16c-3.07,3.58-6.05,7.17-8.87,10.67c-2.19,2.72-4.38,5.49-6.55,8.26
					c0.39-0.72,0.8-1.47,1.25-2.26c3.43-6.09,6.86-12.15,10.28-18.17c3.43-6.03,6.86-12.08,10.28-18.17
					c5.57-9.73,11.1-19.46,16.43-28.93c5.43-9.64,10.9-19.35,16.42-29.12c3.6-6.44,7.21-12.97,10.72-19.41
					c3.52-6.47,7.09-13,10.71-19.6c1.52-2.78,2.97-5.61,4.3-8.4c1.32-2.77,2.48-5.66,3.43-8.57c0.41-0.71,0.62-1.46,0.62-2.25v-2.19
					c0-0.9-0.51-1.54-1.43-1.81c-0.82-0.23-1.75-0.07-2.92,0.55c-0.8,0.53-1.6,1.2-2.39,1.99c-0.95,1.02-1.95,2.06-2.99,3.13
					c-1.05,1.08-2.05,2.13-3.04,3.18c-2.87,3.57-5.57,7.13-8.02,10.59c-2.52,3.55-5.02,7.17-7.43,10.76
					c-4.2,5.97-8.14,12-11.73,17.92c-3.61,5.95-6.89,12.11-9.75,18.33c-1.17,2.6-2.28,5.2-3.29,7.73c-1.05,2.61-1.88,5.23-2.43,7.72
					c-0.22,0.58-0.33,1.39-0.33,2.49c0,0.97,0.65,1.55,1.74,1.55l0.13-0.01c0.84-0.18,1.33-0.74,1.33-1.54v-0.07
					c0.37-0.89,0.61-1.81,0.71-2.72c0.09-0.83,0.31-1.67,0.7-2.57c0.94-3.38,2.18-6.78,3.68-10.09c1.5-3.31,3.13-6.66,4.84-9.96
					c3.59-6.92,7.62-13.82,11.97-20.5c4.36-6.69,9.06-13.47,13.99-20.15c1.53-2.16,3.11-4.3,4.7-6.35c1.59-2.06,3.44-4.12,5.49-6.1
					c0.56-0.5,1.12-0.97,1.68-1.4c0.56-0.43,1.02-0.77,1.39-1.02l0.21-0.14c-0.18,1.32-0.51,2.61-0.96,3.81
					c-0.48,1.28-1,2.55-1.57,3.79c-1.53,3.81-3.2,7.61-4.98,11.29c-1.8,3.73-3.77,7.46-5.84,11.1c-4.19,7.61-8.33,15.16-12.43,22.65
					c-4.09,7.47-8.36,15.08-12.71,22.64c-5.76,10.39-11.72,21.05-17.71,31.68c-6.32,11.21-12.21,21.57-17.99,31.68
					c-2.06,3.49-4.08,7.01-6.01,10.48c-1.89,3.39-3.9,6.91-5.99,10.45l-0.06,0.13c-0.36,1.2-0.71,2.03-1.05,2.48l-0.12,0.16v0.2
					c0,1.03,0.61,1.39,0.92,1.5c0.27,0.12,0.53,0.18,0.78,0.18c0.35,0,0.86-0.12,1.3-0.66c0.15-0.12,0.52-0.43,1.47-1.38
					c1.54-1.79,2.98-3.6,4.31-5.36c1.31-1.75,2.75-3.53,4.28-5.32c5.87-7.56,12.1-15.07,18.54-22.33
					c6.42-7.24,13.33-14.5,20.51-21.55l1.72-1.52c0.45-0.4,0.91-0.84,1.36-1.32c0.59,1.18,1.37,2.48,2.31,3.86l18.87,29.71
					c1.91,2.67,3.73,5.42,5.41,8.15l5.14,8.38l0.09,0.11c0.31,0.31,0.64,0.8,0.98,1.46c0.05,0.36,0.3,1,1.44,1l0.19-0.03
					c0.62-0.21,0.98-0.69,0.98-1.32v-0.14l-0.06-0.13c-0.21-0.41-0.52-0.89-0.88-1.37c-2.09-3.54-4.26-7.07-6.44-10.49
					c-2.19-3.43-4.43-6.92-6.72-10.48c-2.29-3.43-4.57-6.82-6.86-10.19c-2.27-3.34-4.48-6.82-6.54-10.32
					c-0.96-1.79-1.93-3.49-2.87-5.07c-0.94-1.56-1.89-3.24-2.87-5.08c0-0.01,0.04-0.05,0.19-0.17c1.88-1.75,3.75-3.45,5.56-5.03
					c1.83-1.61,3.71-3.31,5.57-5.04c9.82-8.68,20.28-17.18,31.1-25.28c10.81-8.08,22.15-16.15,33.68-23.96
					c6.65-4.43,13.52-8.85,20.41-13.12c6.95-4.31,13.95-8.62,20.97-12.93c3.73-2.11,7.58-4.32,11.43-6.57
					c3.65-2.13,7.38-4.33,11.38-6.73c0.75-0.25,1.48-0.54,2.15-0.86c0.64-0.3,1.33-0.64,2.06-1.01c0.38-0.07,0.71-0.37,0.71-0.96
					v-0.32L488.48,146.47z"/>
			</g>
			<path class="st1" d="M480.6,259.19c-6.49,0.05-13.04,0.22-19.63,0.46c2.41-3.36,4.92-6.7,7.53-9.96
				c3.13-3.92,6.44-7.95,9.81-11.94c0.76-0.77,1.53-1.56,2.3-2.4c0.75-0.81,1.5-1.66,2.25-2.53c0.38-0.28,0.43-0.6,0.42-0.81
				c-0.04-0.49-0.5-0.76-0.75-0.88c-0.29-0.26-0.91-0.42-1.97-0.07l-0.14,0.07c-0.14,0.09-0.39,0.26-0.5,0.52
				c-0.02,0.01-0.04,0.03-0.08,0.05l-0.14,0.14c-0.17,0.23-0.35,0.43-0.51,0.6c-0.21,0.21-0.42,0.46-0.66,0.78
				c-0.35,0.58-0.75,1.08-1.18,1.49c-0.5,0.47-0.96,0.97-1.33,1.47c-1.91,2.17-3.94,4.61-6.01,7.24c-1.89,2.26-4.01,4.99-6.31,8.12
				c-1.89,2.58-3.84,5.34-5.81,8.22c-8.27,0.34-16.59,0.82-24.89,1.44c2.74-3.88,5.65-7.74,8.66-11.5
				c3.13-3.92,6.44-7.95,9.81-11.94c0.76-0.77,1.53-1.56,2.3-2.4c0.75-0.81,1.5-1.66,2.25-2.53c0.38-0.28,0.43-0.6,0.42-0.81
				c-0.04-0.49-0.5-0.76-0.76-0.88c-0.29-0.26-0.91-0.42-1.97-0.07l-0.14,0.07c-0.14,0.09-0.39,0.26-0.5,0.52
				c-0.02,0.01-0.04,0.03-0.07,0.05l-0.14,0.14c-0.18,0.23-0.35,0.43-0.51,0.6c-0.21,0.21-0.43,0.46-0.66,0.78
				c-0.35,0.58-0.75,1.08-1.18,1.49c-0.5,0.47-0.96,0.97-1.33,1.47c-1.91,2.17-3.94,4.61-6.01,7.24c-1.89,2.26-4.01,4.99-6.31,8.12
				c-2.27,3.09-4.62,6.43-6.98,9.94l-0.31,0c-2.67,0.25-5.38,0.51-8.14,0.76c-2.79,0.26-5.54,0.58-8.16,0.95
				c-4.35,0.51-8.64,1.12-12.74,1.81c-4.09,0.7-8.19,1.57-12.11,2.57c-1.18,0.13-2.29,0.46-3.29,0.99c-0.5,0.14-1.14,0.39-1.34,0.97
				c-0.08,0.24-0.11,0.63,0.23,1.09l0.15,0.14c0.55,0.36,1.22,0.41,2.29,0.05c0.53-0.23,1.35-0.48,2.47-0.73l9.12-2.28
				c4.38-0.89,8.83-1.62,13.24-2.18c4.47-0.57,8.9-1.11,13.29-1.62c0.93-0.12,1.77-0.18,2.49-0.18c0.41,0,0.86-0.02,1.33-0.06
				c-4.11,5.91-8.04,12.25-11.71,18.86c-1.86,3.35-3.51,6.66-4.97,9.9c-3.57,2.38-6.79,4.59-9.55,6.55
				c-2.62,1.75-4.98,3.35-7.01,4.77c-1.49,1.04-2.24,1.49-2.59,1.68c0.03-0.16,0.1-0.39,0.21-0.7c0.38-1.07,0.75-2.11,1.12-3.09
				c0.74-1.59,1.69-3.44,2.83-5.48c1.48-2.62,1.45-3.22,1.3-3.62c-0.07-0.2-0.21-0.35-0.4-0.43c-0.6-0.36-1.3-0.24-2.15,0.51
				c-0.57,0.63-1.18,1.29-1.84,1.98c-0.67,0.7-1.29,1.37-1.82,1.96c-0.6,0.53-1.24,1.19-1.91,1.96c-0.66,0.75-1.37,1.47-2.1,2.14
				c-0.76,0.7-1.42,1.3-1.99,1.8c-0.49,0.43-0.78,0.57-0.94,0.6c0.02-0.14,0.07-0.38,0.19-0.72c0.38-1.12,0.89-2.38,1.54-3.74
				c0.67-1.39,1.57-3.23,2.75-5.61c0.11-0.37,0.4-1.37-0.24-1.8l-0.15-0.07c-0.67-0.22-1.39,0.25-2.25,1.57
				c-0.69,1.05-1.33,2.27-1.91,3.61c-0.57,1.34-1.1,2.61-1.58,3.82c-0.7,1.78-0.75,2.17-0.74,2.3c-0.34,1.87,0.79,2.37,1.3,2.49
				c0.95,0.24,1.93-0.04,2.76-0.75c0.61-0.41,1.4-1.03,2.35-1.85c0.96-0.83,1.94-1.77,2.89-2.79l1.04-1.04
				c-0.05,0.08-0.09,0.15-0.13,0.23c-0.68,1.22-1.26,2.36-1.73,3.37c-0.52,1.11-0.77,2.06-0.77,2.92c0,1.02,0.55,1.76,1.55,2.09
				l0.19,0.03c0.12,0,0.25,0.02,0.38,0.06c0.1,0.03,0.21,0.05,0.32,0.05c0.31,0,0.64-0.13,1.06-0.41l16.59-11.05
				c-0.99,2.4-1.86,4.76-2.6,7.06c-0.13,0.27-0.38,0.91-0.9,3.37c-0.4,1.87-0.3,3.46,0.3,4.71c0.27,1.1,1.19,1.8,2.74,2.1l0.11,0.01
				c1.06,0,2.23-0.42,3.47-1.24l6.83-4.55c2.07-1.26,3.62-2.22,4.59-2.87c0.95-0.63,1.92-1.34,2.86-2.09
				c0.95-0.63,2.66-1.74,5.13-3.33c1.67-1.07,3.03-1.98,4.16-2.77c-0.92,2.27-1.75,4.5-2.45,6.67c-0.13,0.27-0.37,0.91-0.9,3.37
				c-0.4,1.87-0.3,3.46,0.3,4.71c0.27,1.1,1.19,1.8,2.74,2.1l0.11,0.01c1.07,0,2.24-0.42,3.48-1.24l6.83-4.55
				c2.07-1.26,3.62-2.22,4.59-2.87c0.95-0.63,1.92-1.34,2.86-2.09c0.95-0.63,2.66-1.74,5.13-3.33c2.34-1.5,4.11-2.7,5.41-3.67
				c-0.2,2.16-0.03,4.37,0.55,6.65c0.75,3.01,1.23,5.64,1.41,7.8c0.19,2.18,0.47,4.55,0.84,6.97l-0.04,0.03
				c-2.08,1.64-4.11,3.31-6.02,4.97c-1.91,1.66-3.66,3.41-5.19,5.18c-3.13,3.39-4.81,6.97-5.01,10.68c0,1.94,0.54,3.43,1.58,4.39
				c0.84,0.96,1.87,1.45,3.05,1.45c0.94,0,1.99-0.32,3.15-0.96c1.15-0.77,2.04-1.42,2.64-1.95c3.5-3.12,5.77-6.81,6.75-10.97
				c0.96-4.08,1.54-8.02,1.73-11.75v-0.63c1.51-1.01,3.56-2.41,6.17-4.21c2.73-1.88,5.66-3.8,8.69-5.69
				c3.07-1.92,5.91-3.75,8.44-5.43c2.54-1.69,4.4-2.86,5.57-3.52c0.96-0.64,1.91-1.24,2.83-1.79c0.95-0.57,2.18-1.3,3.74-2.2
				c0.47-0.32,0.77-0.6,0.92-0.9c0.1-0.21,0.11-0.46,0.01-0.67c-0.19-0.4-0.68-0.55-1.13-0.66l-0.25-0.05l-0.21,0.14
				c-2.11,1.41-4.9,3.2-8.27,5.32c-3.5,2.2-6.13,3.95-8.01,5.34c-1.71,1.14-3.66,2.41-5.85,3.8c-2.19,1.4-4.29,2.73-6.28,4
				c-2,1.27-3.72,2.38-5.15,3.34l-1.51,1c-0.04-2-0.28-4-0.72-5.97c-0.48-2.08-0.91-4.22-1.28-6.36c-0.56-2.72-0.75-5.17-0.56-7.3
				v-0.67c0-0.03,0.01-0.25,0.21-1.22c1.04-0.58,2.9-1.76,5.66-3.61c2.96-1.97,5.85-4.06,8.6-6.21c2.78-2.17,5.01-4.18,6.64-5.97
				c1.17-1.28,1.59-2.23,1.33-2.99c-0.19-0.55-0.7-0.9-1.55-1.04c-1.05-0.14-2.26,0.07-3.59,0.61c-1.25,0.51-2.15,0.89-2.74,1.15
				c-6.55,3.08-11.34,6.96-14.25,11.54c-1.11,1.76-1.92,3.58-2.41,5.46c-4.37,3.03-8.5,5.85-12.27,8.35
				c-3.15,2.1-6.32,4.18-9.42,6.18c-3.02,1.95-5.12,3.25-6.3,3.91c-0.16,0.11-0.37,0.22-0.61,0.33l-0.1-0.13l-0.14-0.06
				c-0.33-0.14-0.5-0.73-0.5-1.65c0-1.14,0.18-2.33,0.55-3.55l1.43-5.23c0.56-2.04,1.31-4.02,2.26-5.92
				c2.26-5.27,4.99-10.56,8.1-15.72c3.12-5.16,6.43-10.34,9.84-15.39l0.07-0.1l1.1-1.77c1.26-0.05,2.53-0.11,3.79-0.15
				c7.78-0.25,15.75-0.44,23.69-0.57h40.56c1.83,0,2.03-1.08,2.03-1.55v-0.6L480.6,259.19z M410.1,311.19l-0.09-0.13l-0.14-0.06
				c-0.32-0.14-0.5-0.73-0.5-1.65c0-1.14,0.18-2.33,0.55-3.55l1.43-5.23c0.56-2.04,1.31-4.02,2.26-5.92
				c2.26-5.27,4.99-10.56,8.1-15.72c3.12-5.16,6.43-10.34,9.84-15.39l0.07-0.1c0.07-0.01,0.18-0.02,0.34-0.02l7.71-0.57
				c5.62-0.44,11.26-0.79,16.84-1.05l-1.28,1.95c-4.1,5.91-8.04,12.25-11.71,18.86c-1.86,3.35-3.52,6.66-4.98,9.91
				c-4.32,2.99-8.39,5.77-12.11,8.25c-3.15,2.1-6.32,4.18-9.42,6.18c-3.02,1.95-5.12,3.25-6.29,3.91
				C410.55,310.98,410.34,311.09,410.1,311.19z M484.37,278.93c-2.67,2.16-5.46,4.34-8.27,6.46c-2.26,1.71-4.63,3.37-7.07,4.95
				c0.82-1.51,1.82-2.94,3.01-4.26c1.67-1.86,3.56-3.49,5.69-4.93c0.35-0.35,0.89-0.77,1.71-1.33c0.33-0.33,0.8-0.64,1.41-0.93
				c0.68-0.32,1.23-0.63,1.62-0.88c1.85-1.11,3.43-1.86,4.7-2.22c0.1-0.03,0.18-0.05,0.26-0.07c-0.03,0.03-0.07,0.07-0.1,0.1
				c-0.5,0.47-0.96,0.98-1.27,1.42C485.48,277.75,484.89,278.35,484.37,278.93z M456.37,341.34c-0.47-0.15-0.85-0.41-1.16-0.77
				c-0.33-0.38-0.57-0.85-0.74-1.4c-0.18-0.59-0.26-1.04-0.26-1.35c0-2.89,1.2-5.84,3.59-8.77c1.69-2.13,3.45-4.06,5.23-5.74
				c1.53-1.45,3.16-2.87,4.85-4.24v1.24c0,0.69-0.09,1.42-0.28,2.17c-0.37,1.82-0.71,3.69-1,5.54c-0.27,1.7-0.88,3.5-1.79,5.32
				c-0.74,1.36-1.63,2.71-2.66,4.01c-1,1.27-2.34,2.48-3.95,3.55C457.4,341.32,456.77,341.47,456.37,341.34z"/>
			<g>
				<path class="st1" d="M258.23,309.22c7.69,0,7.69-11.92,0-11.92C250.54,297.3,250.54,309.22,258.23,309.22L258.23,309.22z"/>
			</g>
		</g>
		<g>
			<path class="st1" d="M150.36,325.83h1.99v12.26c0,1.79,1.24,3.28,2.94,3.28c1.68,0,2.94-1.4,2.94-3.16v-12.38h1.99v12.54
				c0,2.82-2.28,5.1-4.93,5.1c-2.72,0-4.93-2.3-4.93-5.16V325.83z"/>
			<path class="st1" d="M166.51,343.28v-17.42h2.45l8.04,14.14c0.02,0.05,0.04,0.08,0.07,0.08c0.02,0,0.02-0.03,0.02-0.08v-14.17
				h1.99v17.45h-2.47l-8-14.07c-0.02-0.05-0.04-0.07-0.07-0.07c-0.02,0-0.04,0.03-0.04,0.1v14.05H166.51z"/>
			<path class="st1" d="M185.22,343.28v-17.45h5.08c4.59,0,8.24,3.91,8.24,8.72c0,4.84-3.64,8.73-8.24,8.73H185.22z M187.34,327.92
				c-0.09,0-0.13,0.02-0.13,0.09v13.03c0,0.09,0.04,0.14,0.13,0.14h2.96c3.42,0,6.25-3.04,6.25-6.63c0-3.62-2.85-6.62-6.29-6.62
				H187.34z"/>
			<path class="st1" d="M212.84,343.28h-8.13v-17.45h8.13v2.1h-6.01c-0.09,0-0.13,0.02-0.13,0.09v5.35c0,0.07,0.04,0.09,0.13,0.09
				h6.01v2.1h-6.01c-0.09,0-0.13,0.04-0.13,0.12v5.37c0,0.09,0.04,0.14,0.13,0.14h6.01V343.28z"/>
			<path class="st1" d="M226.92,343.28l-3.78-6.56c-0.04-0.09-0.14-0.14-0.24-0.14h-2.01c-0.09,0-0.13,0.04-0.13,0.14v6.56h-2.01
				v-17.45H223c3.12,0,5.22,2.28,5.22,5.42c0,2.09-1,3.81-2.85,4.81c-0.04,0.03-0.07,0.09-0.07,0.17l3.98,7.05H226.92z
				 M220.75,334.34c0,0.11,0.07,0.16,0.2,0.16h2.03c2.36,0,3.25-1.72,3.25-3.3c0-1.37-0.8-3.3-3.25-3.3h-2.03
				c-0.13,0-0.2,0.07-0.2,0.21V334.34z"/>
			<path class="st1" d="M249.61,334.34v5.23c-1.02,2.02-3.45,3.88-6.87,3.88c-4.68,0-8.46-3.98-8.46-8.91s3.78-8.91,8.46-8.91
				c2.12,0,4.02,0.79,5.52,2.17l-1.39,1.48c-1.06-1-2.54-1.56-4.13-1.56c-3.56,0-6.47,3.04-6.47,6.81c0,3.75,2.92,6.81,6.47,6.81
				c2.25,0,4.09-1.07,4.81-2.37v-2.56h-5.85v-2.09H249.61z"/>
			<path class="st1" d="M261.23,325.83l5.86,17.45h-2.12l-1.24-3.75c-0.02-0.12-0.09-0.17-0.2-0.17h-6.01
				c-0.13,0-0.2,0.05-0.22,0.17l-1.26,3.75h-2.08l5.81-17.45H261.23z M258.1,337.08c-0.02,0.02-0.02,0.05-0.02,0.07
				c0,0.07,0.05,0.12,0.11,0.12h4.66c0.11,0,0.16-0.05,0.16-0.12c0-0.02-0.02-0.05-0.02-0.07l-2.41-7.4c0-0.04-0.02-0.07-0.04-0.07
				c-0.02,0-0.02,0.03-0.04,0.07L258.1,337.08z"/>
			<path class="st1" d="M280.52,343.28l-3.78-6.56c-0.04-0.09-0.13-0.14-0.24-0.14h-2.01c-0.09,0-0.14,0.04-0.14,0.14v6.56h-2.01
				v-17.45h4.26c3.12,0,5.22,2.28,5.22,5.42c0,2.09-1,3.81-2.85,4.81c-0.05,0.03-0.07,0.09-0.07,0.17l3.98,7.05H280.52z
				 M274.36,334.34c0,0.11,0.07,0.16,0.2,0.16h2.03c2.37,0,3.25-1.72,3.25-3.3c0-1.37-0.8-3.3-3.25-3.3h-2.03
				c-0.13,0-0.2,0.07-0.2,0.21V334.34z"/>
			<path class="st1" d="M288.37,343.28v-17.42h2.87l4.42,13.63c0.02,0.05,0.02,0.07,0.04,0.07c0.02,0,0.04-0.02,0.04-0.07
				l4.39-13.63h2.87v17.4h-1.99v-14.09c0-0.05-4.53,14-4.55,14.12h-1.53l-4.59-14.19v14.19H288.37z"/>
			<path class="st1" d="M317.53,343.28h-8.13v-17.45h8.13v2.1h-6.01c-0.09,0-0.13,0.02-0.13,0.09v5.35c0,0.07,0.04,0.09,0.13,0.09
				h6.01v2.1h-6.01c-0.09,0-0.13,0.04-0.13,0.12v5.37c0,0.09,0.04,0.14,0.13,0.14h6.01V343.28z"/>
			<path class="st1" d="M323.68,343.28v-17.42h2.45l8.04,14.14c0.02,0.05,0.05,0.08,0.07,0.08c0.02,0,0.02-0.03,0.02-0.08v-14.17
				h1.99v17.45h-2.47l-8-14.07c-0.02-0.05-0.04-0.07-0.07-0.07c-0.02,0-0.05,0.03-0.05,0.1v14.05H323.68z"/>
			<path class="st1" d="M352.62,327.92h-4.13c-0.11,0-0.17,0.06-0.17,0.18v15.17h-1.99V328.1c0-0.12-0.04-0.18-0.15-0.18h-4.09v-2.1
				h10.54V327.92z"/>
			<path class="st1" d="M371.07,339.99c0.42,0.91,1.24,1.4,2.37,1.4c1.35,0,2.69-1.26,2.69-2.84c0-1.77-1.61-2.61-2.85-3.23
				c-2.34-1.12-4.2-2-4.2-4.93c0-2.61,2.1-4.75,4.51-4.75c1.66,0,3.12,0.95,3.89,2.35l-1.77,0.96c-0.38-0.75-1.24-1.23-2.1-1.23
				c-1.33,0-2.54,1.23-2.54,2.56c0,1.28,0.49,1.84,1.17,2.23c0.77,0.44,2.5,1.24,3.42,1.79c1.61,1,2.36,2.42,2.36,4.28
				c0,2.7-2.14,4.89-4.64,4.89c-2.32,0-4-1.56-4.24-3.12L371.07,339.99z"/>
			<path class="st1" d="M393.39,327.92h-4.13c-0.11,0-0.18,0.06-0.18,0.18v15.17h-1.99V328.1c0-0.12-0.04-0.18-0.15-0.18h-4.09v-2.1
				h10.54V327.92z"/>
			<path class="st1" d="M405.32,325.64c4.68,0,8.46,3.98,8.46,8.91s-3.78,8.91-8.46,8.91c-4.68,0-8.46-3.98-8.46-8.91
				S400.64,325.64,405.32,325.64z M405.32,341.36c3.58,0,6.47-3.07,6.47-6.81c0-3.77-2.89-6.81-6.47-6.81
				c-3.55,0-6.47,3.04-6.47,6.81C398.85,338.3,401.76,341.36,405.32,341.36z"/>
			<path class="st1" d="M427.48,343.28l-3.78-6.56c-0.04-0.09-0.13-0.14-0.24-0.14h-2.01c-0.09,0-0.13,0.04-0.13,0.14v6.56h-2.01
				v-17.45h4.26c3.12,0,5.22,2.28,5.22,5.42c0,2.09-0.99,3.81-2.85,4.81c-0.04,0.03-0.07,0.09-0.07,0.17l3.98,7.05H427.48z
				 M421.32,334.34c0,0.11,0.07,0.16,0.2,0.16h2.03c2.36,0,3.25-1.72,3.25-3.3c0-1.37-0.8-3.3-3.25-3.3h-2.03
				c-0.13,0-0.2,0.07-0.2,0.21V334.34z"/>
			<path class="st1" d="M443.5,343.28h-8.13v-17.45h8.13v2.1h-6.01c-0.09,0-0.13,0.02-0.13,0.09v5.35c0,0.07,0.05,0.09,0.13,0.09
				h6.01v2.1h-6.01c-0.09,0-0.13,0.04-0.13,0.12v5.37c0,0.09,0.05,0.14,0.13,0.14h6.01V343.28z"/>
		</g>
	</g>
</g>
</svg>
